<?xml version="1.0" encoding="utf-8"?>
<!-- Generator: Adobe Illustrator 28.0.0, SVG Export Plug-In . SVG Version: 6.00 Build 0)  -->
<svg version="1.1" id="Camada_1" xmlns="http://www.w3.org/2000/svg" xmlns:xlink="http://www.w3.org/1999/xlink" x="0px" y="0px"
	 viewBox="0 0 800 294" style="enable-background:new 0 0 800 294;" xml:space="preserve">
<style type="text/css">
	.st0{fill:#020202;stroke:#000000;stroke-width:3;stroke-linecap:round;stroke-linejoin:round;stroke-miterlimit:10;}
	.st1{fill:#020202;stroke:#000000;stroke-width:3;stroke-miterlimit:10;}
	.st2{fill:#D20000;stroke:#D20000;stroke-width:3;stroke-miterlimit:10;}
	.st3{fill:#D20000;stroke:#D20000;stroke-width:4;stroke-miterlimit:10;}
</style>
<g>
	<path class="st0" d="M254.97,134.86c-2.82-22.97-12.81-42.1-29.79-57.4c-13.31-11.99-28.9-19.1-46.5-21.64
		c-1.84-0.27-3.74-0.18-5.52-0.82c-4.64,0-9.28,0-13.92,0c-1.81,0.81-3.78,0.69-5.68,0.96c-34.01,4.98-62.82,30.33-72.37,63.7
		c-1.66,5.79-2.76,11.67-3.34,17.66c-0.03,0.32,0.12,0.73-0.36,0.87c0,4.96,0,9.91,0,14.87c0.79,1.84,0.67,3.85,0.95,5.78
		c4.89,34.6,29.81,63.92,62.6,73.64c5.69,1.69,11.47,2.81,17.36,3.4c0.31,0.03,0.72-0.12,0.85,0.37c4.64,0,9.28,0,13.92,0
		c1.17-0.75,2.54-0.48,3.8-0.62c37.49-4.35,68.64-33.02,76.59-70.53c0.78-3.69,1.31-7.42,1.71-11.17c0.03-0.32-0.12-0.73,0.36-0.87
		c0-4.84,0-9.68,0-14.51C254.88,137.41,255.12,136.09,254.97,134.86z M244.11,160.71c-0.13-0.02-0.25-0.03-0.38-0.04
		c-2.73,15.49-10.1,29.51-22.28,41.88c-15.05,15.27-33.55,22.97-54.76,22.86c-26.61-0.14-48.03-11.41-63.82-33.2
		c-11.5-15.86-16.03-33.91-14.52-53.49c2.64-34.39,27.88-63.71,61.11-71.01c20.23-4.45,39.34-1.24,57.23,9.3
		c3.81,2.24,7.33,4.95,10.72,7.82c0.08,0.07,0.13,0.13,0.2,0.19c-0.09-0.13-0.2-0.25-0.29-0.38c0.09,0.13,0.2,0.25,0.29,0.38
		c0.09,0.09,0.15,0.18,0.2,0.26c2.14,2.88,5.45,5.19,8.14,8.33c0.2,0.12,0.42,0.32,0.69,0.65c8.76,10.73,14.72,22.89,16.99,36.62
		c1.72,10.43,1.77,20.37,0.11,29.77C243.86,160.68,243.99,160.7,244.11,160.71z"/>
	<g>
		<path class="st1" d="M163.38,142.34c1.81,1.71,3.56,3.49,5.22,5.36c0.85,0.95,1.3,0.73,2.08-0.05c2.29-2.31,4.59-4.61,6.88-6.92
			c-3.98-0.11-7.94-0.9-12.13-2.52c-0.68,0.67-1.35,1.35-2.03,2.01C162.55,141.05,162.5,141.51,163.38,142.34z"/>
		<g>
			<path class="st1" d="M215.73,87.71c-4.26,4.23-8.51,8.48-12.71,12.78c-0.89,0.91-1.3,0.05-1.78-0.33
				c-5.9-4.8-12.47-8.3-19.75-10.33c-13.14-3.67-26.02-2.85-38.48,2.83c-13.22,6.02-22.78,15.87-28.69,29.25
				c-4.4,9.96-5.75,20.44-4.18,31.26c2.04,14.12,8.43,25.85,18.99,35.2c8.42,7.45,18.25,11.92,29.33,13.45
				c24.07,3.31,47.54-9.46,58.24-31.64c1.82-3.78,3.21-7.66,4.17-11.65c-3.36-0.37-6.71-0.97-10.06-2.02
				c-1.87,7.79-5.61,14.78-11.41,20.81c-11.2,11.65-24.87,16.4-40.76,13.93c-19.22-2.99-34.7-18.42-38.1-37.71
				c-4.35-24.62,10.62-48.22,34.59-54.11c14.14-3.48,27.15-0.58,38.89,8.2c1.04,0.77,0.79,1.14,0.05,1.86
				c-4.03,3.99-8.05,7.98-11.98,12.06c-0.92,0.96-1.53,0.83-2.53,0.24c-13.82-8.1-30.59-2.9-37.6,11.62
				c-7.8,16.17,2.69,35.97,20.3,38.31c0.39,0.05,0.77,0.06,1.15,0.09c0.43-3.51,0.93-7,1.09-10.32c-0.26-0.03-0.52-0.03-0.78-0.07
				c-10.94-1.63-17.31-13.48-12.44-23.53c4.17-8.6,14.05-11.97,22.09-7.64c-2.71,2.72-5.32,5.36-7.95,7.96
				c4.19,1.61,8.16,2.41,12.13,2.52c8.81-8.87,17.63-17.74,26.45-26.6c6.16-6.19,12.33-12.36,18.46-18.57
				c0.58-0.59,0.94-0.89,1.43-0.6c-2.59-3.05-5.79-5.31-7.85-8.11C216.16,87.1,216.1,87.35,215.73,87.71z"/>
			<path class="st1" d="M177.15,157.05c-3.33,3.17-7.9,4.91-12.66,4.43c-0.16,3.32-0.66,6.81-1.09,10.32
				c9.96,0.9,19.08-3.71,24.4-11.34C184.21,159.38,180.63,158.26,177.15,157.05z"/>
			<path class="st2" d="M225.94,132.46c0.02,4.48-3.48,8.08-7.87,8.1c-4.39,0.02-7.98-3.55-8.04-7.99
				c-0.05-4.34,3.61-8.11,7.93-8.17C222.26,124.34,225.92,128.03,225.94,132.46z"/>
		</g>
	</g>
</g>
<g>
	<path d="M297.03,120.75v72.18c0,1.23,1,2.23,2.23,2.23h8.49c1.23,0,2.23-1,2.23-2.23v-36.26c0-13.3,10.11-24.08,23.13-25.12
		c1.16-0.09,2.06-1.05,2.06-2.22v-8.51c0-1.29-1.09-2.31-2.37-2.23c-7.04,0.4-13.63,2.59-19.31,6.58c-1.48,1.04-3.51,0-3.51-1.81
		v-2.61c0-1.23-1-2.23-2.23-2.23h-8.49C298.02,118.52,297.03,119.52,297.03,120.75z"/>
	<path d="M375.79,118.52c-6.3,0-12.25,1.4-17.5,4.2c-5.25,2.8-9.8,6.65-13.3,11.2c-3.5,4.9-5.95,10.15-7,16.45
		c-0.33,2.01-0.67,4.02-0.7,6.04c0,0.18,0.01,0.36,0.03,0.53c0.31,2.34,0.32,4.36,0.66,6.38c1.05,5.95,3.5,11.55,7,16.1
		c3.5,4.9,8.05,8.75,13.3,11.55c5.25,2.8,11.2,4.2,17.5,4.2c4.9,0,9.8-1.05,14-2.8c3.45-1.33,6.5-3.26,9.3-5.48
		c1.47-1.17,1.72-3.32,0.55-4.8l-3.69-4.66c-1.18-1.49-3.32-1.69-4.83-0.52c-1.64,1.27-3.51,2.31-5.53,3.21
		c-3.15,1.4-6.3,1.75-9.8,1.75c-5.95,0-11.2-1.75-15.75-5.25c-2.86-2.38-5.23-5.08-6.89-8.33c-1.16-2.27,0.49-4.97,3.04-4.97h54.29
		c1.85,0,3.34-1.47,3.41-3.31c0.04-1.06,0.04-2.15,0.04-3.33c0-2.29-0.31-4.28-0.35-5.96c-0.01-0.23-0.03-0.46-0.08-0.69
		c-1.38-6.08-3.44-11.18-6.81-15.94c-0.07-0.1-0.15-0.21-0.24-0.3c-3.82-4.49-7.98-8.28-13.17-11.05
		C387.69,119.92,382.09,118.52,375.79,118.52z M375.79,131.47c5.95,0,10.85,1.75,15.4,5.25c3.14,2.42,5.45,5.33,7.15,8.75
		c1.12,2.25-0.56,4.9-3.07,4.9h-39.11c-2.5,0-4.18-2.62-3.09-4.87c1.67-3.43,4.07-6.35,6.98-8.78
		C364.59,133.22,369.84,131.47,375.79,131.47z"/>
	<path d="M457.78,118.52c-7,0-13.65,1.75-19.25,5.25c-5.95,3.15-10.5,8.05-14,13.65c-3.5,5.95-5.25,12.25-5.25,19.25
		c0,7,1.75,13.65,5.25,19.25c3.5,5.95,8.05,10.49,14,13.99c5.6,3.5,12.25,5.25,19.25,5.25c7,0,13.3-1.75,19.25-5.25
		c5.6-3.5,10.15-8.05,13.65-13.99c0.97-1.37,1.73-2.84,2.33-4.36c0.7-1.77-0.62-3.69-2.52-3.69h-8.45c-0.93,0-1.79,0.47-2.28,1.25
		c-0.09,0.15-0.19,0.31-0.28,0.49c-2.08,3.81-5.18,6.59-8.97,9.02c-0.08,0.05-0.17,0.1-0.26,0.15c-3.81,2.06-7.97,3.08-12.47,3.08
		c-4.84,0-9-1.02-12.82-3.08c-0.09-0.05-0.18-0.1-0.26-0.15c-3.74-2.4-6.48-5.15-8.88-8.89c-0.06-0.09-0.11-0.18-0.16-0.27
		c-2.05-3.82-3.08-8.32-3.08-12.81c0-4.5,1.03-8.65,3.08-12.47c0.05-0.09,0.1-0.17,0.15-0.26c2.43-3.79,5.21-6.9,9.02-8.97
		c3.85-2.45,8.05-3.5,12.95-3.5c4.55,0,8.75,1.05,12.6,3.5c3.85,2.1,7,5.25,9.1,9.1c0.07,0.07,0.15,0.16,0.22,0.26
		c0.53,0.7,1.33,1.14,2.2,1.14h8.54c1.92,0,3.25-1.95,2.51-3.72c-0.59-1.41-1.33-2.82-2.27-4.33c-3.5-5.6-8.05-10.5-13.65-13.65
		C471.08,120.27,464.78,118.52,457.78,118.52z"/>
	<path d="M655.59,195.16c1.58,0,2.85-1.28,2.85-2.85v-35.64c0-21-17.14-38.14-38.14-38.14l0,0c-21,0-38.5,17.15-38.5,38.14v35.64
		c0,1.58,1.28,2.85,2.85,2.85h7.59c1.58,0,2.85-1.28,2.85-2.85v-34.94c0-13.65,11.19-25.2,25.2-25.2l0,0
		c13.65,0,25.19,11.55,25.19,25.2v34.94c0,1.58,1.28,2.85,2.85,2.85H655.59z"/>
	<path d="M536.7,119.32c-6.91,0-13.47,1.72-19,5.18c-5.88,3.11-10.37,7.95-13.82,13.48c-3.46,5.87-5.18,12.09-5.18,19.01
		c0,6.91,1.73,13.48,5.18,19.01c3.45,5.87,7.94,10.36,13.82,13.82c5.53,3.46,12.09,5.18,19,5.18c6.92,0,13.13-1.72,19.01-5.18
		c5.53-3.45,10.02-7.95,13.48-13.82c3.45-5.53,5.17-12.1,5.17-19.01c0-6.91-1.72-13.13-5.17-19.01
		c-3.46-5.53-7.95-10.37-13.48-13.48C549.83,121.05,543.62,119.32,536.7,119.32z M536.7,132.1c4.5,0,8.64,1.04,12.45,3.46
		c3.8,2.07,6.91,5.18,8.98,8.98c2.42,3.8,3.46,7.94,3.46,12.44c0,4.49-1.04,8.99-3.46,12.78c-2.07,3.8-5.18,6.57-8.98,8.98
		c-3.81,2.08-7.95,3.11-12.45,3.11c-4.84,0-8.98-1.04-12.78-3.11c-3.81-2.42-6.57-5.18-8.99-8.98c-2.07-3.8-3.11-8.29-3.11-12.78
		c0-4.49,1.04-8.64,3.11-12.44c2.42-3.8,5.18-6.91,8.99-8.98C527.72,133.14,531.86,132.1,536.7,132.1z"/>
	<path class="st3" d="M676.41,180.06l-4.69,2.56c-0.93,0.51-1.22,1.7-0.64,2.58c1,1.52,2.15,2.95,3.57,4.37
		c0.06,0.06,0.12,0.11,0.18,0.16c4.16,3.39,9.29,5.33,15.87,5.33c7.86,0,14.24-2.95,18.66-8.84c3.68-4.67,5.65-10.31,5.65-16.7
		c0-6.63-2.21-12.28-6.39-16.45c-4.18-4.42-9.58-6.63-15.72-6.63c-3.61,0-7.22,0.88-10.6,2.64c-1.26,0.66-2.75-0.31-2.64-1.73
		l1.08-14.47c0.07-0.94,0.86-1.67,1.8-1.67h25c1,0,1.81-0.81,1.81-1.81v-4.74c0-1-0.81-1.81-1.81-1.81h-32.18
		c-0.92,0-1.7,0.7-1.8,1.62l-3.25,30.64c-0.01,0.11-0.04,0.21-0.06,0.31c-0.2,0.69-0.2,1.35-0.2,1.81c0,2.08,0.65,3.51,1.55,4.49
		c0.11,0.12,0.24,0.22,0.37,0.31c0.67,0.4,1.34,0.6,2,0.6c0.93,0,2.07-0.43,3.43-1.31c0.17-0.11,0.31-0.25,0.43-0.41
		c0.44-0.56,1.04-1,1.64-1.58c0.1-0.09,0.18-0.2,0.26-0.32c0.75-1.15,1.91-2.07,3.09-2.77c2.21-1.47,4.91-1.97,7.61-1.97
		c4.67,0,8.35,1.23,11.05,4.18c2.7,2.95,4.17,6.88,4.17,11.79c0,5.4-1.47,9.58-4.42,12.77c-2.7,3.19-6.39,4.67-10.56,4.67
		c-3.41,0-6.57-0.97-9.02-3.13c-0.05-0.04-0.09-0.08-0.13-0.13c-1.03-1.04-1.94-2.21-2.64-3.59
		C678.43,179.94,677.31,179.57,676.41,180.06z"/>
</g>
</svg>
